<svg xmlns="http://www.w3.org/2000/svg" viewBox="0 0 640 360" role="img" aria-labelledby="title desc"><title id="title">Git 버전 관리</title><desc id="desc">브랜치와 커밋 그래프를 보여주는 일러스트</desc><defs><linearGradient id="bg" x1="0" y1="0" x2="1" y2="1"><stop stop-color="#FFF0EE"/><stop offset="1" stop-color="#FFD4CE"/></linearGradient><linearGradient id="core" x1="0" y1="0" x2="1" y2="1"><stop stop-color="#F36B5D"/><stop offset="1" stop-color="#B5342E"/></linearGradient><filter id="s" x="-30%" y="-30%" width="160%" height="160%"><feDropShadow dx="0" dy="12" stdDeviation="10" flood-color="#B94A41" flood-opacity=".22"/></filter></defs><rect width="640" height="360" rx="26" fill="url(#bg)"/><g fill="none" stroke="#DE6D62" stroke-width="10" stroke-linecap="round" stroke-linejoin="round"><path d="M140 94v171c0 20 16 36 36 36h288c20 0 36-16 36-36V120"/><path d="M140 148h104c20 0 36 16 36 36v81M276 184h104c20 0 36-16 36-36V94"/></g><g filter="url(#s)" fill="url(#core)"><circle cx="140" cy="94" r="31"/><circle cx="500" cy="120" r="31"/><circle cx="276" cy="265" r="31"/><circle cx="500" cy="301" r="31"/></g><g fill="#fff"><circle cx="140" cy="94" r="10"/><circle cx="500" cy="120" r="10"/><circle cx="276" cy="265" r="10"/><circle cx="500" cy="301" r="10"/></g><path d="M210 75h175" stroke="#F9A29A" stroke-width="12" stroke-linecap="round"/><path d="M210 101h112" stroke="#F9A29A" stroke-width="12" stroke-linecap="round"/></svg>